# xmcd
#
# Track frame offsets: 
#        150
#        19165
#        39968
#        58443
#        77867
#        109865
#        133170
#        152894
#        176540
#        195956
#        216928
#        230202
#        248325
#        270684
#
# Disc length: 4046 seconds
#
# Revision: 0
# Processed by: cddbd v1.5.2PL0 Copyright (c) Steve Scherf et al.
# Submitted via: ExactAudioCopy v1.0b1
#
DISCID=c40fcc0e
DTITLE=Various Artist - The Colourful Of Bengawan Solo
DYEAR=2005
DGENRE=Country
TTITLE0=IIN In Pop Country
TTITLE1=MUS Mulyadi In Disco Reggae
TTITLE2=Gen's 21 In Rock
TTITLE3=Sundari Soekotjo In Original Keroncong
TTITLE4=Tuti Maryati In Sundanese Degung
TTITLE5=Gesang and Asti Dewi C. In Original Keroncong
TTITLE6=Tuti Maryati In Japanese Keroncong
TTITLE7=TRI Ubaya Cakti Chorus and Shanghai Orchestra
TTITLE8=Melani Tunas In Mandarin Keroncong
TTITLE9=Lidya LAU In Children Pop
TTITLE10=Dong Feng In Pop Rock
TTITLE11=Harry In Mandarin Cha Cha
TTITLE12=Deny In Sundanese Kacapi Suling
TTITLE13=Varia Bengawan Solo Shanghai Opera Academy Chorus and Yogyakart
TTITLE13=a Academy Orchestra
EXTD=
EXTT0=
EXTT1=
EXTT2=
EXTT3=
EXTT4=
EXTT5=
EXTT6=
EXTT7=
EXTT8=
EXTT9=
EXTT10=
EXTT11=
EXTT12=
EXTT13=
PLAYORDER=
